{"title":"How I Met Your Mother S09E05 480p HDTV x264 AAC E-Subs [GWC].mp4","uid":9048598,"size":67021045,"categoryP":"video","categoryS":"tv_shows","magnet":"?xt=urn:btih:dda254f9fc050d72515bea277930b61294c52ef7&amp;dn=How+I+Met+Your+Mother+S09E05+480p+HDTV+x264+AAC+E-Subs+%5BGWC%5D.mp4&amp;tr=udp%3A%2F%2Ftracker.openbittorrent.com%3A80&amp;tr=udp%3A%2F%2Fopen.demonii.com%3A1337&amp;tr=udp%3A%2F%2Ftracker.coppersurfer.tk%3A6969&amp;tr=udp%3A%2F%2Fexodus.desync.com%3A6969","seeders":3,"leechers":0,"uploader":"canc232","files":1,"time":1381815993,"description":"How I Met Your Mother S09E05 480p HDTV x264 AAC E-Subs [GWC]\n\nSCREENS :\n &lt;a href=&quot;\nhttp://s20.postimg.org/yt39yvwfx/How_I_Met_Your_Mother_S09_E05_480p_HDTV_x264_AAC.jpg&quot; rel=&quot;nofollow&quot; target=&quot;_NEW&quot;&gt;\nhttp://s20.postimg.org/yt39yvwfx/How_I_Met_Your_Mother_S09_E05_480p_HDTV_x264_AAC.jpg&lt;/a&gt;\n &lt;a href=&quot;\nhttp://s20.postimg.org/bqcqzpuyl/How_I_Met_Your_Mother_S09_E05_480p_HDTV_x264_AAC.jpg&quot; rel=&quot;nofollow&quot; target=&quot;_NEW&quot;&gt;\nhttp://s20.postimg.org/bqcqzpuyl/How_I_Met_Your_Mother_S09_E05_480p_HDTV_x264_AAC.jpg&lt;/a&gt;\n &lt;a href=&quot;\nhttp://s20.postimg.org/bc6tmdlh9/How_I_Met_Your_Mother_S09_E05_480p_HDTV_x264_AAC.jpg&quot; rel=&quot;nofollow&quot; target=&quot;_NEW&quot;&gt;\nhttp://s20.postimg.org/bc6tmdlh9/How_I_Met_Your_Mother_S09_E05_480p_HDTV_x264_AAC.jpg&lt;/a&gt;\n\n\nMEDIA INFO :\nGeneral \nFormat : MPEG-4 \nFormat profile : Base Media \nCodec ID : isom \nFile size : 63.9 MiB \nDuration : 21mn 32s \nOverall bit rate mode : Variable \nOverall bit rate : 415 Kbps \n\nVideo \nID : 201 \nFormat : AVC \nFormat profile : &lt;a class=&quot;__cf_email__&quot; href=&quot;/cdn-cgi/l/email-protection&quot; data-cfemail=&quot;e3ab8a848ba3afd0cdd3&quot;&gt;[email&amp;#160;protected]&lt;/a&gt;&lt;script cf-hash='f9e31' type=&quot;text/javascript&quot;&gt;\n/* &lt;![CDATA[ */!function(){try{var t=&quot;currentScript&quot;in document?document.currentScript:function(){for(var t=document.getElementsByTagName(&quot;script&quot;),e=t.length;e--;)if(t[e].getAttribute(&quot;cf-hash&quot;))return t[e]}();if(t&amp;&amp;t.previousSibling){var e,r,n,i,c=t.previousSibling,a=c.getAttribute(&quot;data-cfemail&quot;);if(a){for(e=&quot;&quot;,r=parseInt(a.substr(0,2),16),n=2;a.length-n;n+=2)i=parseInt(a.substr(n,2),16)^r,e+=String.fromCharCode(i);e=document.createTextNode(e),c.parentNode.replaceChild(e,c)}}}catch(u){}}();/* ]]&gt; */&lt;/script&gt; \nFormat settings, CABAC : Yes \nFormat settings, ReFrames : 4 frames \nDuration : 21mn 31s \nBit rate : 360 Kbps \nWidth : 720 pixels \nHeight : 404 pixels \nDisplay aspect ratio : 16:9 \nFrame rate : 23.976 fps \nStream size : 55.4 MiB (87%) \nTitle : How I Met Your Mother S09E05 480p HDTV x264 AAC E-Subs [GWC] \nWriting library : x264 core\n\nAudio \nFormat : AAC \nFormat profile : HE-AAC / LC \nCodec ID : 40 \nDuration : 21mn 32s \nBit rate mode : Variable \nChannel(s) : 2 channels \nStream size : 8.01 MiB (13%) \nLanguage : English \n\nText \nFormat : Timed Text \nCodec ID : tx3g \nDuration : 21mn 11s \nBit rate mode : Variable \nStream size : 18.1 KiB (0%) \nTitle : English Subtitle by elderman \nLanguage : English","torrent":{"xt":"urn:btih:dda254f9fc050d72515bea277930b61294c52ef7","amp;dn":"How+I+Met+Your+Mother+S09E05+480p+HDTV+x264+AAC+E-Subs+%5BGWC%5D.mp4","amp;tr":["udp%3A%2F%2Ftracker.openbittorrent.com%3A80","udp%3A%2F%2Fopen.demonii.com%3A1337","udp%3A%2F%2Ftracker.coppersurfer.tk%3A6969","udp%3A%2F%2Fexodus.desync.com%3A6969"],"infoHash":"dda254f9fc050d72515bea277930b61294c52ef7","infoHashBuffer":{"type":"Buffer","data":[221,162,84,249,252,5,13,114,81,91,234,39,121,48,182,18,148,197,46,247]},"announce":[],"urlList":[]}}